<svg xmlns="http://www.w3.org/2000/svg" width="1180" height="607" viewBox="0 0 1180 607" font-family="ui-monospace,SFMono-Regular,Menlo,Consolas,'Liberation Mono',monospace" role="img" aria-label="Projects">
<rect width="1180" height="607" fill="#0A101F"/>
<defs><linearGradient id="acc_dark" x1="0" y1="0" x2="1" y2="0">
<stop offset="0" stop-color="#A78BFA"/><stop offset="1" stop-color="#22D3EE"/>
</linearGradient></defs>
<text x="7" y="18" font-size="11" letter-spacing="2" fill="#22D3EE">PROJECTS.LIST</text>
<text x="135" y="18" font-size="10" fill="#94A3B8">./projects.sh --all</text>
<g transform="translate(8,30)">
<rect width="578" height="186" rx="10" fill="#0D1526" stroke="rgba(248,250,252,0.10)"/>
<rect width="578" height="28" rx="10" fill="#111A2E"/><rect y="18" width="578" height="10" fill="#111A2E"/>
<line x1="0" y1="28" x2="578" y2="28" stroke="rgba(248,250,252,0.10)"/>
<circle cx="12" cy="15" r="3" fill="#22D3EE"/>
<text x="22" y="19" font-size="10" fill="#64748B">it-skillcircle/skillcircle-portal</text>
<g transform="translate(16,40)">
<rect width="40" height="40" rx="10" fill="url(#acc_dark)" opacity="0.18"/>
<rect width="40" height="40" rx="10" fill="none" stroke="#A78BFA" opacity="0.45"/>
<text x="20" y="27" text-anchor="middle" font-size="19" font-weight="700" fill="#22D3EE">S</text>
</g>
<text x="68" y="61" font-size="17" font-weight="700" fill="#F8FAFC">SkillCircle Portal<tspan fill="#22D3EE">_<animate attributeName="opacity" values="1;0;1" dur="1.1s" repeatCount="indefinite"/></tspan></text>
<text x="68" y="80" font-size="11" fill="#94A3B8">Multi-branch ops portal: live sales</text><text x="68" y="96" font-size="11" fill="#94A3B8">dashboards, escalation routing, walk-ins</text>
<rect x="68" y="118" width="63" height="18" rx="9" fill="#A78BFA" opacity="0.14"/><text x="99" y="130" text-anchor="middle" font-size="9.5" fill="#A78BFA">Node.js</text><rect x="137.8" y="118" width="50" height="18" rx="9" fill="#A78BFA" opacity="0.14"/><text x="163" y="130" text-anchor="middle" font-size="9.5" fill="#A78BFA">React</text><rect x="194.8" y="118" width="69" height="18" rx="9" fill="#A78BFA" opacity="0.14"/><text x="229" y="130" text-anchor="middle" font-size="9.5" fill="#A78BFA">Postgres</text>
<rect x="68" y="143" width="60" height="16" rx="8" fill="#64748B" opacity="0.14"/><text x="98" y="155" text-anchor="middle" font-size="9.5" fill="#64748B">PRIVATE</text><text x="138" y="155" font-size="11" fill="#64748B">106 commits · updated 9d ago</text>
<circle cx="528" cy="90" r="30" fill="none" stroke="rgba(248,250,252,0.10)" stroke-width="10"/><circle cx="528" cy="90" r="30" fill="none" stroke="#F1E05A" stroke-width="10" stroke-dasharray="180.76 7.74" stroke-dashoffset="0.00" transform="rotate(-90 528 90)" stroke-linecap="butt"/><circle cx="528" cy="90" r="30" fill="none" stroke="#563D7C" stroke-width="10" stroke-dasharray="5.47 183.02" stroke-dashoffset="-180.76" transform="rotate(-90 528 90)" stroke-linecap="butt"/><circle cx="528" cy="90" r="30" fill="none" stroke="#CB171E" stroke-width="10" stroke-dasharray="2.26 186.23" stroke-dashoffset="-186.23" transform="rotate(-90 528 90)" stroke-linecap="butt"/><text x="528" y="94" text-anchor="middle" font-size="11" font-weight="700" fill="#F8FAFC">96%</text>
<circle cx="378" cy="68" r="4" fill="#F1E05A"/><text x="386" y="72" font-size="9.5" fill="#94A3B8">JavaScript 95.8%</text><circle cx="378" cy="86" r="4" fill="#563D7C"/><text x="386" y="90" font-size="9.5" fill="#94A3B8">CSS 2.9%</text><circle cx="378" cy="104" r="4" fill="#CB171E"/><text x="386" y="108" font-size="9.5" fill="#94A3B8">YAML 1.2%</text>
</g>
<g transform="translate(594,30)">
<rect width="578" height="186" rx="10" fill="#0D1526" stroke="rgba(248,250,252,0.10)"/>
<rect width="578" height="28" rx="10" fill="#111A2E"/><rect y="18" width="578" height="10" fill="#111A2E"/>
<line x1="0" y1="28" x2="578" y2="28" stroke="rgba(248,250,252,0.10)"/>
<circle cx="12" cy="15" r="3" fill="#22D3EE"/>
<text x="22" y="19" font-size="10" fill="#64748B">it-skillcircle/skillcircle-admissions</text>
<g transform="translate(16,40)">
<rect width="40" height="40" rx="10" fill="url(#acc_dark)" opacity="0.18"/>
<rect width="40" height="40" rx="10" fill="none" stroke="#A78BFA" opacity="0.45"/>
<text x="20" y="27" text-anchor="middle" font-size="19" font-weight="700" fill="#22D3EE">A</text>
</g>
<text x="68" y="61" font-size="17" font-weight="700" fill="#F8FAFC">Admissions Dashboard<tspan fill="#22D3EE">_<animate attributeName="opacity" values="1;0;1" dur="1.1s" repeatCount="indefinite"/></tspan></text>
<text x="68" y="80" font-size="11" fill="#94A3B8">End-to-end admission pipeline with real-time</text><text x="68" y="96" font-size="11" fill="#94A3B8">analytics and role-based access</text>
<rect x="68" y="118" width="63" height="18" rx="9" fill="#A78BFA" opacity="0.14"/><text x="99" y="130" text-anchor="middle" font-size="9.5" fill="#A78BFA">Next.js</text><rect x="137.8" y="118" width="69" height="18" rx="9" fill="#A78BFA" opacity="0.14"/><text x="172" y="130" text-anchor="middle" font-size="9.5" fill="#A78BFA">Supabase</text><rect x="214" y="118" width="82" height="18" rx="9" fill="#A78BFA" opacity="0.14"/><text x="255" y="130" text-anchor="middle" font-size="9.5" fill="#A78BFA">TypeScript</text>
<rect x="68" y="143" width="60" height="16" rx="8" fill="#64748B" opacity="0.14"/><text x="98" y="155" text-anchor="middle" font-size="9.5" fill="#64748B">PRIVATE</text><text x="138" y="155" font-size="11" fill="#64748B">97 commits · updated 9d ago</text>
<circle cx="528" cy="90" r="30" fill="none" stroke="rgba(248,250,252,0.10)" stroke-width="10"/><circle cx="528" cy="90" r="30" fill="none" stroke="#3178C6" stroke-width="10" stroke-dasharray="134.53 53.96" stroke-dashoffset="0.00" transform="rotate(-90 528 90)" stroke-linecap="butt"/><circle cx="528" cy="90" r="30" fill="none" stroke="#E38C00" stroke-width="10" stroke-dasharray="53.40 135.10" stroke-dashoffset="-134.53" transform="rotate(-90 528 90)" stroke-linecap="butt"/><circle cx="528" cy="90" r="30" fill="none" stroke="#563D7C" stroke-width="10" stroke-dasharray="0.57 187.93" stroke-dashoffset="-187.93" transform="rotate(-90 528 90)" stroke-linecap="butt"/><text x="528" y="94" text-anchor="middle" font-size="11" font-weight="700" fill="#F8FAFC">71%</text>
<circle cx="378" cy="68" r="4" fill="#3178C6"/><text x="386" y="72" font-size="9.5" fill="#94A3B8">TypeScript 71.3%</text><circle cx="378" cy="86" r="4" fill="#E38C00"/><text x="386" y="90" font-size="9.5" fill="#94A3B8">SQL 28.3%</text><circle cx="378" cy="104" r="4" fill="#563D7C"/><text x="386" y="108" font-size="9.5" fill="#94A3B8">CSS 0.3%</text>
</g>
<g transform="translate(8,222)">
<rect width="578" height="186" rx="10" fill="#0D1526" stroke="rgba(248,250,252,0.10)"/>
<rect width="578" height="28" rx="10" fill="#111A2E"/><rect y="18" width="578" height="10" fill="#111A2E"/>
<line x1="0" y1="28" x2="578" y2="28" stroke="rgba(248,250,252,0.10)"/>
<circle cx="12" cy="15" r="3" fill="#22D3EE"/>
<text x="22" y="19" font-size="10" fill="#64748B">it-skillcircle/Job-portal-sc</text>
<g transform="translate(16,40)">
<rect width="40" height="40" rx="10" fill="url(#acc_dark)" opacity="0.18"/>
<rect width="40" height="40" rx="10" fill="none" stroke="#A78BFA" opacity="0.45"/>
<text x="20" y="27" text-anchor="middle" font-size="19" font-weight="700" fill="#22D3EE">J</text>
</g>
<text x="68" y="61" font-size="17" font-weight="700" fill="#F8FAFC">Job Portal<tspan fill="#22D3EE">_<animate attributeName="opacity" values="1;0;1" dur="1.1s" repeatCount="indefinite"/></tspan></text>
<text x="68" y="80" font-size="11" fill="#94A3B8">Monorepo job board on a NestJS API with a</text><text x="68" y="96" font-size="11" fill="#94A3B8">Dockerised Next.js front end</text>
<rect x="68" y="118" width="56" height="18" rx="9" fill="#A78BFA" opacity="0.14"/><text x="96" y="130" text-anchor="middle" font-size="9.5" fill="#A78BFA">NestJS</text><rect x="131.4" y="118" width="63" height="18" rx="9" fill="#A78BFA" opacity="0.14"/><text x="163" y="130" text-anchor="middle" font-size="9.5" fill="#A78BFA">Next.js</text><rect x="201.20000000000002" y="118" width="56" height="18" rx="9" fill="#A78BFA" opacity="0.14"/><text x="229" y="130" text-anchor="middle" font-size="9.5" fill="#A78BFA">Docker</text>
<rect x="68" y="143" width="60" height="16" rx="8" fill="#64748B" opacity="0.14"/><text x="98" y="155" text-anchor="middle" font-size="9.5" fill="#64748B">PRIVATE</text><text x="138" y="155" font-size="11" fill="#64748B">39 commits · updated 2mo ago</text>
<circle cx="528" cy="90" r="30" fill="none" stroke="rgba(248,250,252,0.10)" stroke-width="10"/><circle cx="528" cy="90" r="30" fill="none" stroke="#3178C6" stroke-width="10" stroke-dasharray="144.50 44.00" stroke-dashoffset="0.00" transform="rotate(-90 528 90)" stroke-linecap="butt"/><circle cx="528" cy="90" r="30" fill="none" stroke="#F1E05A" stroke-width="10" stroke-dasharray="25.43 163.07" stroke-dashoffset="-144.50" transform="rotate(-90 528 90)" stroke-linecap="butt"/><circle cx="528" cy="90" r="30" fill="none" stroke="#3572A5" stroke-width="10" stroke-dasharray="18.57 169.93" stroke-dashoffset="-169.93" transform="rotate(-90 528 90)" stroke-linecap="butt"/><text x="528" y="94" text-anchor="middle" font-size="11" font-weight="700" fill="#F8FAFC">72%</text>
<circle cx="378" cy="68" r="4" fill="#3178C6"/><text x="386" y="72" font-size="9.5" fill="#94A3B8">TypeScript 71.6%</text><circle cx="378" cy="86" r="4" fill="#F1E05A"/><text x="386" y="90" font-size="9.5" fill="#94A3B8">JavaScript 12.6%</text><circle cx="378" cy="104" r="4" fill="#3572A5"/><text x="386" y="108" font-size="9.5" fill="#94A3B8">Python 9.2%</text>
</g>
<g transform="translate(594,222)">
<rect width="578" height="186" rx="10" fill="#0D1526" stroke="rgba(248,250,252,0.10)"/>
<rect width="578" height="28" rx="10" fill="#111A2E"/><rect y="18" width="578" height="10" fill="#111A2E"/>
<line x1="0" y1="28" x2="578" y2="28" stroke="rgba(248,250,252,0.10)"/>
<circle cx="12" cy="15" r="3" fill="#22D3EE"/>
<text x="22" y="19" font-size="10" fill="#64748B">it-skillcircle/skillcircle-gmb</text>
<g transform="translate(16,40)">
<rect width="40" height="40" rx="10" fill="url(#acc_dark)" opacity="0.18"/>
<rect width="40" height="40" rx="10" fill="none" stroke="#A78BFA" opacity="0.45"/>
<text x="20" y="27" text-anchor="middle" font-size="19" font-weight="700" fill="#22D3EE">G</text>
</g>
<text x="68" y="61" font-size="17" font-weight="700" fill="#F8FAFC">GMB Review Manager<tspan fill="#22D3EE">_<animate attributeName="opacity" values="1;0;1" dur="1.1s" repeatCount="indefinite"/></tspan></text>
<text x="68" y="80" font-size="11" fill="#94A3B8">Pull and reply to Google Business Profile</text><text x="68" y="96" font-size="11" fill="#94A3B8">reviews for every branch</text>
<rect x="68" y="118" width="63" height="18" rx="9" fill="#A78BFA" opacity="0.14"/><text x="99" y="130" text-anchor="middle" font-size="9.5" fill="#A78BFA">Express</text><rect x="137.8" y="118" width="82" height="18" rx="9" fill="#A78BFA" opacity="0.14"/><text x="179" y="130" text-anchor="middle" font-size="9.5" fill="#A78BFA">Google API</text><rect x="226.8" y="118" width="69" height="18" rx="9" fill="#A78BFA" opacity="0.14"/><text x="261" y="130" text-anchor="middle" font-size="9.5" fill="#A78BFA">Postgres</text>
<rect x="68" y="143" width="60" height="16" rx="8" fill="#64748B" opacity="0.14"/><text x="98" y="155" text-anchor="middle" font-size="9.5" fill="#64748B">PRIVATE</text><text x="138" y="155" font-size="11" fill="#64748B">10 commits · updated 4mo ago</text>
<circle cx="528" cy="90" r="30" fill="none" stroke="rgba(248,250,252,0.10)" stroke-width="10"/><circle cx="528" cy="90" r="30" fill="none" stroke="#E34C26" stroke-width="10" stroke-dasharray="123.09 65.41" stroke-dashoffset="0.00" transform="rotate(-90 528 90)" stroke-linecap="butt"/><circle cx="528" cy="90" r="30" fill="none" stroke="#F1E05A" stroke-width="10" stroke-dasharray="65.41 123.09" stroke-dashoffset="-123.09" transform="rotate(-90 528 90)" stroke-linecap="butt"/><text x="528" y="94" text-anchor="middle" font-size="11" font-weight="700" fill="#F8FAFC">65%</text>
<circle cx="378" cy="68" r="4" fill="#E34C26"/><text x="386" y="72" font-size="9.5" fill="#94A3B8">HTML 65.3%</text><circle cx="378" cy="86" r="4" fill="#F1E05A"/><text x="386" y="90" font-size="9.5" fill="#94A3B8">JavaScript 34.7%</text>
</g>
<g transform="translate(8,414)">
<rect width="578" height="186" rx="10" fill="#0D1526" stroke="rgba(248,250,252,0.10)"/>
<rect width="578" height="28" rx="10" fill="#111A2E"/><rect y="18" width="578" height="10" fill="#111A2E"/>
<line x1="0" y1="28" x2="578" y2="28" stroke="rgba(248,250,252,0.10)"/>
<circle cx="12" cy="15" r="3" fill="#22D3EE"/>
<text x="22" y="19" font-size="10" fill="#64748B">it-skillcircle/skillcircle-hub</text>
<g transform="translate(16,40)">
<rect width="40" height="40" rx="10" fill="url(#acc_dark)" opacity="0.18"/>
<rect width="40" height="40" rx="10" fill="none" stroke="#A78BFA" opacity="0.45"/>
<text x="20" y="27" text-anchor="middle" font-size="19" font-weight="700" fill="#22D3EE">P</text>
</g>
<text x="68" y="61" font-size="17" font-weight="700" fill="#F8FAFC">Performance Hub<tspan fill="#22D3EE">_<animate attributeName="opacity" values="1;0;1" dur="1.1s" repeatCount="indefinite"/></tspan></text>
<text x="68" y="80" font-size="11" fill="#94A3B8">Team performance tracker with live Firebase</text><text x="68" y="96" font-size="11" fill="#94A3B8">state and per-branch leaderboards</text>
<rect x="68" y="118" width="50" height="18" rx="9" fill="#A78BFA" opacity="0.14"/><text x="93" y="130" text-anchor="middle" font-size="9.5" fill="#A78BFA">React</text><rect x="125" y="118" width="69" height="18" rx="9" fill="#A78BFA" opacity="0.14"/><text x="160" y="130" text-anchor="middle" font-size="9.5" fill="#A78BFA">Firebase</text><rect x="201.2" y="118" width="63" height="18" rx="9" fill="#A78BFA" opacity="0.14"/><text x="233" y="130" text-anchor="middle" font-size="9.5" fill="#A78BFA">Zustand</text>
<rect x="68" y="143" width="60" height="16" rx="8" fill="#64748B" opacity="0.14"/><text x="98" y="155" text-anchor="middle" font-size="9.5" fill="#64748B">PRIVATE</text><text x="138" y="155" font-size="11" fill="#64748B">10 commits · updated 3mo ago</text>
<circle cx="528" cy="90" r="30" fill="none" stroke="rgba(248,250,252,0.10)" stroke-width="10"/><circle cx="528" cy="90" r="30" fill="none" stroke="#F1E05A" stroke-width="10" stroke-dasharray="186.05 2.45" stroke-dashoffset="0.00" transform="rotate(-90 528 90)" stroke-linecap="butt"/><circle cx="528" cy="90" r="30" fill="none" stroke="#563D7C" stroke-width="10" stroke-dasharray="1.88 186.61" stroke-dashoffset="-186.05" transform="rotate(-90 528 90)" stroke-linecap="butt"/><circle cx="528" cy="90" r="30" fill="none" stroke="#E34C26" stroke-width="10" stroke-dasharray="0.57 187.93" stroke-dashoffset="-187.93" transform="rotate(-90 528 90)" stroke-linecap="butt"/><text x="528" y="94" text-anchor="middle" font-size="11" font-weight="700" fill="#F8FAFC">99%</text>
<circle cx="378" cy="68" r="4" fill="#F1E05A"/><text x="386" y="72" font-size="9.5" fill="#94A3B8">JavaScript 98.7%</text><circle cx="378" cy="86" r="4" fill="#563D7C"/><text x="386" y="90" font-size="9.5" fill="#94A3B8">CSS 1%</text><circle cx="378" cy="104" r="4" fill="#E34C26"/><text x="386" y="108" font-size="9.5" fill="#94A3B8">HTML 0.3%</text>
</g>
<g transform="translate(594,414)">
<rect width="578" height="186" rx="10" fill="#0D1526" stroke="rgba(248,250,252,0.10)"/>
<rect width="578" height="28" rx="10" fill="#111A2E"/><rect y="18" width="578" height="10" fill="#111A2E"/>
<line x1="0" y1="28" x2="578" y2="28" stroke="rgba(248,250,252,0.10)"/>
<circle cx="12" cy="15" r="3" fill="#22D3EE"/>
<text x="22" y="19" font-size="10" fill="#64748B">Shivamg1101/Ticket-Flix</text>
<g transform="translate(16,40)">
<rect width="40" height="40" rx="10" fill="url(#acc_dark)" opacity="0.18"/>
<rect width="40" height="40" rx="10" fill="none" stroke="#A78BFA" opacity="0.45"/>
<text x="20" y="27" text-anchor="middle" font-size="19" font-weight="700" fill="#22D3EE">T</text>
</g>
<text x="68" y="61" font-size="17" font-weight="700" fill="#F8FAFC">Ticket Flix<tspan fill="#22D3EE">_<animate attributeName="opacity" values="1;0;1" dur="1.1s" repeatCount="indefinite"/></tspan></text>
<text x="68" y="80" font-size="11" fill="#94A3B8">Movie ticket booking interface with seat</text><text x="68" y="96" font-size="11" fill="#94A3B8">selection and showtime browsing</text>
<rect x="68" y="118" width="82" height="18" rx="9" fill="#A78BFA" opacity="0.14"/><text x="109" y="130" text-anchor="middle" font-size="9.5" fill="#A78BFA">JavaScript</text><rect x="157" y="118" width="46" height="18" rx="9" fill="#A78BFA" opacity="0.14"/><text x="180" y="130" text-anchor="middle" font-size="9.5" fill="#A78BFA">HTML</text><rect x="210" y="118" width="46" height="18" rx="9" fill="#A78BFA" opacity="0.14"/><text x="233" y="130" text-anchor="middle" font-size="9.5" fill="#A78BFA">CSS</text>
<text x="68" y="155" font-size="11" fill="#64748B">public · updated 2024</text>
<circle cx="528" cy="90" r="30" fill="none" stroke="rgba(248,250,252,0.10)" stroke-width="10"/><circle cx="528" cy="90" r="30" fill="none" stroke="#F1E05A" stroke-width="10" stroke-dasharray="188.50 0.00" stroke-dashoffset="0.00" transform="rotate(-90 528 90)" stroke-linecap="butt"/><text x="528" y="94" text-anchor="middle" font-size="11" font-weight="700" fill="#F8FAFC">100%</text>
<circle cx="378" cy="68" r="4" fill="#F1E05A"/><text x="386" y="72" font-size="9.5" fill="#94A3B8">JavaScript 100%</text>
</g>
</svg>