<svg xmlns="http://www.w3.org/2000/svg" width="578" height="186" viewBox="0 0 578 186" font-family="ui-monospace,SFMono-Regular,Menlo,Consolas,'Liberation Mono',monospace" role="img" aria-label="Admissions Dashboard">
<rect width="578" height="186" fill="#0A101F"/>
<defs><linearGradient id="acc_dark" x1="0" y1="0" x2="1" y2="0">
<stop offset="0" stop-color="#A78BFA"/><stop offset="1" stop-color="#22D3EE"/>
</linearGradient></defs>
<rect width="578" height="186" rx="10" fill="#0D1526" stroke="rgba(248,250,252,0.10)"/>
<rect width="578" height="28" rx="10" fill="#111A2E"/><rect y="18" width="578" height="10" fill="#111A2E"/>
<line x1="0" y1="28" x2="578" y2="28" stroke="rgba(248,250,252,0.10)"/>
<circle cx="12" cy="15" r="3" fill="#22D3EE"/>
<text x="22" y="19" font-size="10" fill="#64748B">it-skillcircle/skillcircle-admissions</text>
<g transform="translate(16,40)">
<rect width="40" height="40" rx="10" fill="url(#acc_dark)" opacity="0.18"/>
<rect width="40" height="40" rx="10" fill="none" stroke="#A78BFA" opacity="0.45"/>
<text x="20" y="27" text-anchor="middle" font-size="19" font-weight="700" fill="#22D3EE">A</text>
</g>
<text x="68" y="61" font-size="17" font-weight="700" fill="#F8FAFC">Admissions Dashboard<tspan fill="#22D3EE">_<animate attributeName="opacity" values="1;0;1" dur="1.1s" repeatCount="indefinite"/></tspan></text>
<text x="68" y="80" font-size="11" fill="#94A3B8">Role-based admission platform with SLA</text><text x="68" y="96" font-size="11" fill="#94A3B8">timers and 30+ SQL migrations</text>
<rect x="68" y="118" width="63" height="18" rx="9" fill="#A78BFA" opacity="0.14"/><text x="99" y="130" text-anchor="middle" font-size="9.5" fill="#A78BFA">Next.js</text><rect x="137.8" y="118" width="69" height="18" rx="9" fill="#A78BFA" opacity="0.14"/><text x="172" y="130" text-anchor="middle" font-size="9.5" fill="#A78BFA">Supabase</text><rect x="214" y="118" width="82" height="18" rx="9" fill="#A78BFA" opacity="0.14"/><text x="255" y="130" text-anchor="middle" font-size="9.5" fill="#A78BFA">TypeScript</text>
<rect x="68" y="143" width="60" height="16" rx="8" fill="#64748B" opacity="0.14"/><text x="98" y="155" text-anchor="middle" font-size="9.5" fill="#64748B">PRIVATE</text><text x="138" y="155" font-size="11" fill="#64748B">97 commits · updated 9d ago</text>
<circle cx="528" cy="90" r="30" fill="none" stroke="rgba(248,250,252,0.10)" stroke-width="10"/><circle cx="528" cy="90" r="30" fill="none" stroke="#3178C6" stroke-width="10" stroke-dasharray="134.53 53.96" stroke-dashoffset="0.00" transform="rotate(-90 528 90)" stroke-linecap="butt"/><circle cx="528" cy="90" r="30" fill="none" stroke="#E38C00" stroke-width="10" stroke-dasharray="53.40 135.10" stroke-dashoffset="-134.53" transform="rotate(-90 528 90)" stroke-linecap="butt"/><circle cx="528" cy="90" r="30" fill="none" stroke="#563D7C" stroke-width="10" stroke-dasharray="0.57 187.93" stroke-dashoffset="-187.93" transform="rotate(-90 528 90)" stroke-linecap="butt"/><text x="528" y="94" text-anchor="middle" font-size="11" font-weight="700" fill="#F8FAFC">71%</text>
<circle cx="378" cy="68" r="4" fill="#3178C6"/><text x="386" y="72" font-size="9.5" fill="#94A3B8">TypeScript 71.3%</text><circle cx="378" cy="86" r="4" fill="#E38C00"/><text x="386" y="90" font-size="9.5" fill="#94A3B8">SQL 28.3%</text><circle cx="378" cy="104" r="4" fill="#563D7C"/><text x="386" y="108" font-size="9.5" fill="#94A3B8">CSS 0.3%</text>
</svg>